Coordinates
version=1
nRows=7
nColumns=46
inDegrees=yes

Units are S.I. units (second, meters, Newtons, ...)
Angles are in degrees.

endheader
time	pelvis_tilt	pelvis_list	pelvis_rotation	pelvis_tx	pelvis_ty	pelvis_tz	bb_angle	bb_tx	bb_ty	bb_tz	hip_flexion_r	hip_adduction_r	hip_rotation_r	knee_angle_r	knee_angle_r_beta	ankle_angle_r	subtalar_angle_r	mtp_angle_r	crank_angle_r	hip_flexion_l	hip_adduction_l	hip_rotation_l	knee_angle_l	knee_angle_l_beta	ankle_angle_l	subtalar_angle_l	mtp_angle_l	crank_angle_l	lumbar_extension	lumbar_bending	lumbar_rotation	arm_flex_r	arm_add_r	arm_rot_r	elbow_flex_r	pro_sup_r	wrist_flex_r	wrist_dev_r	arm_flex_l	arm_add_l	arm_rot_l	elbow_flex_l	pro_sup_l	wrist_flex_l	wrist_dev_l
      0.00000000	    -40.61622967	     13.07944782	      1.53053821	      0.09373322	      1.02460729	     -0.27517595	      0.00000000	      0.50000000	      0.00000000	      0.25000000	     74.23432742	    -11.22815611	     12.52362930	     51.87367306	      0.90536639	      7.63069634	     -5.82032933	      0.00000000	      0.00000000	    118.25328213	     -7.04648779	    -10.57116335	    107.78982995	      1.88128743	     15.56267877	    -13.94578292	      0.00000000	      0.00000000	    -89.95755737	     23.20122836	     18.07256679	     70.81705643	     89.93008558	     59.99877706	     68.88616138	     18.17912474	      0.00000000	      0.00000000	      0.08522347	    -60.46301130	    -88.93343960	    107.53200962	     25.35958172	      0.00000000	      0.00000000
      0.00500000	    -40.62109439	     13.08783350	      1.52939877	      0.09374277	      1.02459908	     -0.27517731	      0.00000000	      0.50000000	      0.00000000	      0.25000000	     74.27078344	    -11.21863724	     12.54364329	     51.94754008	      0.90665561	      7.56120055	     -5.87729528	      0.00000000	      0.00000000	    118.25456411	     -7.04614311	    -10.58827732	    107.75400689	      1.88066220	     15.53792315	    -13.94692741	      0.00000000	      0.00000000	    -89.95753927	     23.20249736	     18.06829826	     68.47540338	     89.92984570	     62.36425632	     69.02299598	     17.44331340	      0.00000000	      0.00000000	      0.01659988	    -60.41036357	    -88.93184690	    107.69830047	     24.94721363	      0.00000000	      0.00000000
      0.01000000	    -40.64039271	     13.05811629	      1.45487383	      0.09368986	      1.02448433	     -0.27501858	      0.00000000	      0.50000000	      0.00000000	      0.25000000	     74.30850408	    -11.08478757	     12.59054644	     52.00102589	      0.90758912	      7.38783556	     -6.24963809	      0.00000000	      0.00000000	    118.27537952	     -7.08528335	    -10.40541766	    107.78050569	      1.88112469	     15.72462492	    -13.58982847	      0.00000000	      0.00000000	    -89.95755693	     23.14190841	     18.19174600	     69.37056460	     89.93011677	     61.32225546	     67.36770967	     25.58288354	      0.00000000	      0.00000000	      0.37652359	    -60.53140814	    -88.90734549	    106.10416981	     31.78257758	      0.00000000	      0.00000000
      0.01500000	    -40.65905152	     12.97019366	      1.33503292	      0.09386760	      1.02419273	     -0.27518617	      0.00000000	      0.50000000	      0.00000000	      0.25000000	     74.37093938	    -10.98751688	     12.48899642	     52.12729475	      0.90979292	      7.58238854	     -5.88227406	      0.00000000	      0.00000000	    118.38186335	     -7.14191094	    -10.26547101	    107.81196680	      1.88167379	     15.61580022	    -13.68639795	      0.00000000	      0.00000000	    -89.95758359	     23.07043265	     18.24903084	     67.42727632	     89.92979981	     63.44084359	     68.87997691	     17.61670761	      0.00000000	      0.00000000	      0.10112561	    -60.31708013	    -88.94456579	    107.63201426	     25.50985195	      0.00000000	      0.00000000
      0.02000000	    -40.65914830	     12.90901659	      1.07970501	      0.09414104	      1.02387370	     -0.27505285	      0.00000000	      0.50000000	      0.00000000	      0.25000000	     74.38090215	    -10.70733426	     12.53507967	     52.18829773	      0.91085763	      7.55574690	     -5.99299414	      0.00000000	      0.00000000	    118.47025835	     -7.29783298	    -10.01498707	    107.87012119	      1.88268878	     15.63318381	    -13.61552255	      0.00000000	      0.00000000	    -89.95770854	     22.86714251	     18.36433136	     68.90479365	     89.93000574	     61.79928400	     67.51410334	     24.52893426	      0.00000000	      0.00000000	      0.28663444	    -60.27839489	    -88.93553846	    106.56068962	     31.53659116	      0.00000000	      0.00000000
      0.02500000	    -40.68700233	     12.79504918	      1.00718920	      0.09412850	      1.02352465	     -0.27528821	      0.00000000	      0.50000000	      0.00000000	      0.25000000	     74.45300406	    -10.61973005	     12.43941076	     52.30534551	      0.91290050	      7.62146878	     -5.85909664	      0.00000000	      0.00000000	    118.61944598	     -7.39744399	    -10.00597216	    107.85917965	      1.88249781	     15.34927957	    -13.96852114	      0.00000000	      0.00000000	    -89.95766512	     22.82320872	     18.43118487	     68.33261788	     89.92978162	     62.56869830	     68.91057861	     17.46062674	      0.00000000	      0.00000000	      0.04207063	    -60.12116258	    -88.94451783	    107.84195789	     25.35387866	      0.00000000	      0.00000000
      0.03000000	    -40.72694560	     12.67549075	      0.82195922	      0.09416335	      1.02318605	     -0.27520216	      0.00000000	      0.50000000	      0.00000000	      0.25000000	     74.50614251	    -10.36533314	     12.41651558	     52.37103439	      0.91404698	      7.53049339	     -6.02956107	      0.00000000	      0.00000000	    118.75711957	     -7.52672391	     -9.80091027	    107.91338993	      1.88344396	     15.32098874	    -14.00751150	      0.00000000	      0.00000000	    -89.95776205	     22.65750597	     18.49939909	     68.88582763	     89.92989997	     62.02979733	     68.40103083	     20.40521863	      0.00000000	      0.00000000	     -0.34799010	    -59.90820248	    -88.92372636	    107.53592338	     27.54623326	      0.00000000	      0.00000000
